# xmcd
#
# Track frame offsets:
#	150
#	17157
#	32426
#	44318
#	63299
#	74691
#	87237
#	105058
#	120434
#	133020
#	147346
#	159598
#
# Disc length: 2320 seconds
#
# Revision: 2
# Processed by: cddbd v1.5.2PL0 Copyright (c) Steve Scherf et al.
# Submitted via: EasyCDDAExtractor 6.5.0.1
#
DISCID=99090e0c
DTITLE=Eb' n' Flo - Here and Now
DYEAR=2010
DGENRE=Blues
TTITLE0=Boon Dog
TTITLE1=Don't cry sister
TTITLE2=Lodi
TTITLE3=Missing Chicago
TTITLE4=CGB Rag
TTITLE5=Roll and Tumble
TTITLE6=Closer to you
TTITLE7=Boot hill blues
TTITLE8=Keep your lamp trimmed
TTITLE9=As the crow flies
TTITLE10=Walking blues
TTITLE11=32-20 Blues
EXTD=
EXTT0=
EXTT1=
EXTT2=
EXTT3=
EXTT4=
EXTT5=
EXTT6=
EXTT7=
EXTT8=
EXTT9=
EXTT10=
EXTT11=
PLAYORDER=
